<svg width="32" height="32" viewBox="0 0 32 32" fill="none" xmlns="http://www.w3.org/2000/svg">
<mask id="mask0_3475_5590" style="mask-type:alpha" maskUnits="userSpaceOnUse" x="0" y="0" width="32" height="32">
<rect width="32" height="32" fill="#D9D9D9"/>
</mask>
<g mask="url(#mask0_3475_5590)">
<path fill-rule="evenodd" clip-rule="evenodd" d="M5.77786 9.33325C4.9223 9.33325 4.18964 9.63762 3.57986 10.2464C2.97112 10.8561 2.66675 11.5888 2.66675 12.4444V18.6666C2.66675 19.5221 2.97112 20.2548 3.57986 20.8646C4.18964 21.4733 4.9223 21.7777 5.77786 21.7777H27.5556C28.4112 21.7777 29.1439 21.4733 29.7536 20.8646C30.3624 20.2548 30.6667 19.5221 30.6667 18.6666V10.111C30.6667 9.84208 30.6328 9.58282 30.565 9.33325H25.3779H5.77786ZM27.5556 12.4444V18.6666H5.77786V12.4444H27.5556ZM26.0001 17.111H13.5556V13.9999H26.0001V17.111ZM9.99808 16.663C9.69941 16.9617 9.32971 17.111 8.88897 17.111C8.44823 17.111 8.07853 16.9617 7.77986 16.663C7.48223 16.3654 7.33342 15.9962 7.33342 15.5555C7.33342 15.1147 7.48223 14.745 7.77986 14.4464C8.07853 14.1487 8.44823 13.9999 8.88897 13.9999C9.32971 13.9999 9.69941 14.1487 9.99808 14.4464C10.2957 14.745 10.4445 15.1147 10.4445 15.5555C10.4445 15.9962 10.2957 16.3654 9.99808 16.663Z" fill="#484949"/>
</g>
</svg>
