<svg width="20" height="20" viewBox="0 0 20 20" fill="none" xmlns="http://www.w3.org/2000/svg">
<mask id="mask0_5027_3785" style="mask-type:alpha" maskUnits="userSpaceOnUse" x="0" y="0" width="20" height="20">
<rect width="20" height="20" fill="#D9D9D9"/>
</mask>
<g mask="url(#mask0_5027_3785)">
<path fill-rule="evenodd" clip-rule="evenodd" d="M3.61095 5.83325C3.07623 5.83325 2.61831 6.02348 2.2372 6.40395C1.85674 6.78506 1.6665 7.24298 1.6665 7.7777V11.6666C1.6665 12.2013 1.85674 12.6592 2.2372 13.0403C2.61831 13.4208 3.07623 13.611 3.61095 13.611H17.2221C17.7568 13.611 18.2147 13.4208 18.5958 13.0403C18.9763 12.6592 19.1665 12.2013 19.1665 11.6666V6.31936C19.1665 6.15127 19.1453 5.98923 19.1029 5.83325H15.8609H3.61095ZM3.61095 7.7777H17.2221V11.6666H3.61095V7.7777ZM16.2498 10.6944H8.47206V8.74992H16.2498V10.6944ZM6.24859 10.4144C6.06192 10.601 5.83086 10.6944 5.55539 10.6944C5.27993 10.6944 5.04887 10.601 4.8622 10.4144C4.67618 10.2283 4.58317 9.9976 4.58317 9.72214C4.58317 9.44668 4.67618 9.21561 4.8622 9.02895C5.04887 8.84293 5.27993 8.74992 5.55539 8.74992C5.83086 8.74992 6.06192 8.84293 6.24859 9.02895C6.43461 9.21561 6.52762 9.44668 6.52762 9.72214C6.52762 9.9976 6.43461 10.2283 6.24859 10.4144Z" fill="#484949"/>
</g>
</svg>
