<svg width="21" height="21" viewBox="0 0 21 21" fill="none" xmlns="http://www.w3.org/2000/svg">
<path fill-rule="evenodd" clip-rule="evenodd" d="M2.14526 0.956379C1.49841 1.2705 1.10449 1.72009 0.855528 2.42867C0.600509 3.15426 0.604911 18.0608 0.860371 18.8134C1.06113 19.4048 1.58636 19.9878 2.18885 20.2881C2.59653 20.4912 2.94785 20.5001 10.594 20.5001H18.5737L19.0297 20.2552C19.6063 19.9456 20.2067 19.2468 20.3721 18.6927C20.4599 18.3984 20.4998 16.8698 20.4998 13.8045V9.34428L19.2891 10.5559L18.0784 11.7676V14.704C18.0784 17.0656 18.0478 17.6823 17.9222 17.8548C17.7703 18.0633 17.5664 18.0693 10.594 18.0693C3.62167 18.0693 3.41772 18.0633 3.26583 17.8548C3.13485 17.6748 3.10965 16.5046 3.10965 10.5901C3.10965 3.68705 3.11427 3.53512 3.32978 3.31878C3.54253 3.1052 3.69662 3.0978 7.95249 3.0978H12.3551V1.8824V0.667004L7.53974 0.671092L2.72442 0.67507L2.14526 0.956379ZM14.9705 0.839922C14.4455 1.12587 14.3362 1.50452 14.3362 3.03703V4.42369H13.9607C13.4241 4.42369 12.0816 4.70146 11.3106 4.97216C8.73218 5.87697 6.52077 8.38599 5.92554 11.0817C5.7141 12.0389 5.6058 13.0112 5.72555 12.8762C5.77937 12.8155 6.11078 12.2934 6.46188 11.7161C6.8131 11.1388 7.32919 10.3799 7.60897 10.0298C8.99722 8.29208 11.2723 7.08784 13.5383 6.89128L14.3362 6.82211L14.3367 8.247C14.337 9.46449 14.3683 9.72337 14.5515 10.0251C14.853 10.5213 15.4805 10.7056 16.0101 10.4534C16.5382 10.2018 20.353 6.3217 20.4488 5.93874C20.597 5.34562 20.3977 5.05647 18.5378 3.16785C16.0106 0.601705 15.7365 0.422709 14.9705 0.839922Z" fill="#569131"/>
<path d="M10.1333 15.6476C9.77407 16.0082 9.45709 16.1991 8.98689 16.1991C8.23669 16.1991 7.67668 15.6741 7.67668 14.8892C7.67668 14.1414 8.25783 13.5898 8.97104 13.5898C9.41482 13.5898 9.78992 13.7807 10.1333 14.1467L10.6405 13.6587C10.2231 13.1708 9.61558 12.895 8.98689 12.895C7.89857 12.895 6.96875 13.6852 6.96875 14.8892C6.96875 16.0612 7.78763 16.8939 8.97633 16.8939C9.68954 16.8939 10.1228 16.6552 10.6247 16.162L10.1333 15.6476Z" fill="#569131"/>
<path d="M10.9484 16.0665C11.2284 16.6234 11.614 16.8939 12.1688 16.8939C12.8556 16.8939 13.331 16.4484 13.331 15.812C13.331 15.1172 12.7657 14.8202 12.0578 14.1944C11.9469 14.0989 11.8359 14.0035 11.8359 13.855C11.8359 13.7012 11.968 13.5898 12.1582 13.5898C12.3642 13.5898 12.5491 13.7277 12.7288 13.9822L13.2676 13.5049C12.9665 13.1549 12.6495 12.895 12.1688 12.895C11.5982 12.895 11.128 13.314 11.128 13.855C11.128 14.3959 11.5929 14.7566 12.3801 15.4195C12.5333 15.5468 12.6231 15.7059 12.6231 15.8438C12.6231 16.04 12.4276 16.1991 12.1846 16.1991C11.931 16.1991 11.7303 16.0294 11.5559 15.7006L10.9484 16.0665Z" fill="#569131"/>
<path d="M15.0773 16.7984H15.7694L17.1377 12.9905H16.398L15.426 15.6953L14.475 12.9905H13.7301L15.0773 16.7984Z" fill="#569131"/>
<path d="M10.1333 15.6476C9.77407 16.0082 9.45709 16.1991 8.98689 16.1991C8.23669 16.1991 7.67668 15.6741 7.67668 14.8892C7.67668 14.1414 8.25783 13.5898 8.97104 13.5898C9.41482 13.5898 9.78992 13.7807 10.1333 14.1467L10.6405 13.6587C10.2231 13.1708 9.61558 12.895 8.98689 12.895C7.89857 12.895 6.96875 13.6852 6.96875 14.8892C6.96875 16.0612 7.78763 16.8939 8.97633 16.8939C9.68954 16.8939 10.1228 16.6552 10.6247 16.162L10.1333 15.6476Z" stroke="#569131" stroke-width="0.2"/>
<path d="M10.9484 16.0665C11.2284 16.6234 11.614 16.8939 12.1688 16.8939C12.8556 16.8939 13.331 16.4484 13.331 15.812C13.331 15.1172 12.7657 14.8202 12.0578 14.1944C11.9469 14.0989 11.8359 14.0035 11.8359 13.855C11.8359 13.7012 11.968 13.5898 12.1582 13.5898C12.3642 13.5898 12.5491 13.7277 12.7288 13.9822L13.2676 13.5049C12.9665 13.1549 12.6495 12.895 12.1688 12.895C11.5982 12.895 11.128 13.314 11.128 13.855C11.128 14.3959 11.5929 14.7566 12.3801 15.4195C12.5333 15.5468 12.6231 15.7059 12.6231 15.8438C12.6231 16.04 12.4276 16.1991 12.1846 16.1991C11.931 16.1991 11.7303 16.0294 11.5559 15.7006L10.9484 16.0665Z" stroke="#569131" stroke-width="0.2"/>
<path d="M15.0773 16.7984H15.7694L17.1377 12.9905H16.398L15.426 15.6953L14.475 12.9905H13.7301L15.0773 16.7984Z" stroke="#569131" stroke-width="0.2"/>
</svg>
