<svg width="25" height="24" viewBox="0 0 25 24" fill="none" xmlns="http://www.w3.org/2000/svg">
<path d="M10.6661 6.35633C11.1667 6.23915 11.6792 6.18057 12.1934 6.18178C17.2843 6.18178 20.1934 12 20.1934 12C19.7519 12.8259 19.2254 13.6034 18.6225 14.32M13.7352 13.5418C13.5354 13.7561 13.2946 13.9281 13.0269 14.0473C12.7593 14.1666 12.4704 14.2307 12.1774 14.2359C11.8845 14.241 11.5935 14.1871 11.3218 14.0774C11.0501 13.9677 10.8033 13.8043 10.5962 13.5972C10.389 13.39 10.2256 13.1432 10.1159 12.8715C10.0062 12.5998 9.95229 12.3089 9.95746 12.0159C9.96263 11.7229 10.0267 11.434 10.146 11.1664C10.2652 10.8988 10.4372 10.6579 10.6515 10.4581M16.5134 16.32C15.2702 17.2676 13.7563 17.7926 12.1934 17.8181C7.10245 17.8181 4.19336 12 4.19336 12C5.09801 10.3141 6.35273 8.84113 7.87336 7.67996L16.5134 16.32Z" stroke="#808284" stroke-width="2" stroke-linecap="round" stroke-linejoin="round"/>
<path d="M4.19336 4L20.1934 20" stroke="#808284" stroke-width="2" stroke-linecap="round" stroke-linejoin="round"/>
</svg>
