<svg width="24" height="24" viewBox="0 0 24 24" fill="none" xmlns="http://www.w3.org/2000/svg">
<mask id="mask0_4798_17936" style="mask-type:alpha" maskUnits="userSpaceOnUse" x="0" y="0" width="24" height="24">
<rect width="24" height="24" fill="#D9D9D9"/>
</mask>
<g mask="url(#mask0_4798_17936)">
<path d="M8 22V11L6 8V2H18V8L16 11V22H8ZM12 15.5C11.5833 15.5 11.2293 15.354 10.938 15.062C10.646 14.7707 10.5 14.4167 10.5 14C10.5 13.5833 10.646 13.2293 10.938 12.938C11.2293 12.646 11.5833 12.5 12 12.5C12.4167 12.5 12.7707 12.646 13.062 12.938C13.354 13.2293 13.5 13.5833 13.5 14C13.5 14.4167 13.354 14.7707 13.062 15.062C12.7707 15.354 12.4167 15.5 12 15.5ZM8 5H16V4H8V5ZM16 7H8V7.4L10 10.4V20H14V10.4L16 7.4V7Z" fill="white"/>
</g>
</svg>
