<svg width="20" height="20" viewBox="0 0 20 20" fill="none" xmlns="http://www.w3.org/2000/svg">
<mask id="mask0_3631_5677" style="mask-type:alpha" maskUnits="userSpaceOnUse" x="0" y="0" width="20" height="20">
<rect width="20" height="20" fill="#D9D9D9"/>
</mask>
<g mask="url(#mask0_3631_5677)">
<path fill-rule="evenodd" clip-rule="evenodd" d="M15.1855 3.33327L15.1855 3.33325H18.2731C18.3135 3.48181 18.3337 3.63614 18.3337 3.79623V8.88882C18.3337 9.39808 18.1525 9.83419 17.7901 10.1972C17.6982 10.2889 17.6016 10.3691 17.5002 10.4376C17.5003 10.4306 17.5003 10.4236 17.5003 10.4166C17.5003 9.53063 17.1053 8.73694 16.4818 8.20202V5.18512H3.51884V8.88882H12.0986C11.8249 9.33313 11.667 9.85642 11.667 10.4166C11.667 10.5261 11.673 10.6343 11.6848 10.7407H3.51884C3.00958 10.7407 2.57347 10.5595 2.21051 10.1972C1.84816 9.83419 1.66699 9.39808 1.66699 8.88882V5.18512C1.66699 4.67586 1.84816 4.23975 2.21051 3.87679C2.57347 3.51444 3.00958 3.33327 3.51884 3.33327H15.1855ZM15.5559 7.66588C15.2518 7.5584 14.9246 7.49991 14.5837 7.49991C14.0025 7.49991 13.461 7.66991 13.0062 7.9629H8.14847V6.11105H15.5559V7.66588ZM5.3707 7.9629C5.63304 7.9629 5.8531 7.87401 6.03088 7.69623C6.20804 7.51907 6.29662 7.29932 6.29662 7.03697C6.29662 6.77463 6.20804 6.55456 6.03088 6.37679C5.8531 6.19963 5.63304 6.11105 5.3707 6.11105C5.10835 6.11105 4.88829 6.19963 4.71051 6.37679C4.53335 6.55456 4.44477 6.77463 4.44477 7.03697C4.44477 7.29932 4.53335 7.51907 4.71051 7.69623C4.88829 7.87401 5.10835 7.9629 5.3707 7.9629Z" fill="#003D7D"/>
</g>
<mask id="path-3-outside-1_3631_5677" maskUnits="userSpaceOnUse" x="6.54199" y="5.45825" width="13" height="12" fill="black">
<rect fill="white" x="6.54199" y="5.45825" width="13" height="12"/>
<path d="M7.8094 15.7931L11.5381 12.7447C11.0133 12.0663 10.7295 11.2369 10.7295 10.3645C10.7295 9.32023 11.137 8.34106 11.874 7.60278C12.611 6.8645 13.5928 6.45825 14.6357 6.45825C15.6787 6.45825 16.6605 6.8658 17.3975 7.60278C18.1357 8.33976 18.542 9.32023 18.542 10.3645C18.542 11.4075 18.1344 12.3892 17.3975 13.1262C16.6605 13.8645 15.68 14.2708 14.6357 14.2708C13.7633 14.2708 12.9352 13.9869 12.2568 13.4635L9.03034 16.9987C9.02042 17.0086 9.00865 17.0165 8.99569 17.0218C8.98274 17.0272 8.96885 17.03 8.95482 17.03C8.94079 17.03 8.9269 17.0272 8.91395 17.0218C8.90099 17.0165 8.88921 17.0086 8.8793 16.9987L7.8094 15.9441C7.79948 15.9342 7.79161 15.9224 7.78624 15.9095C7.78087 15.8965 7.7781 15.8826 7.7781 15.8686C7.7781 15.8546 7.78087 15.8407 7.78624 15.8277C7.79161 15.8148 7.79948 15.803 7.8094 15.7931ZM12.5732 12.427C13.1253 12.9778 13.8571 13.2812 14.6357 13.2812C15.4144 13.2812 16.1462 12.9778 16.6982 12.427C17.249 11.8749 17.5524 11.1431 17.5524 10.3645C17.5524 9.58586 17.249 8.85278 16.6982 8.302C16.1462 7.75122 15.4144 7.44784 14.6357 7.44784C13.8571 7.44784 13.124 7.74992 12.5732 8.302C12.0225 8.85409 11.7191 9.58586 11.7191 10.3645C11.7191 11.1431 12.0225 11.8762 12.5732 12.427Z"/>
</mask>
<path d="M7.8094 15.7931L11.5381 12.7447C11.0133 12.0663 10.7295 11.2369 10.7295 10.3645C10.7295 9.32023 11.137 8.34106 11.874 7.60278C12.611 6.8645 13.5928 6.45825 14.6357 6.45825C15.6787 6.45825 16.6605 6.8658 17.3975 7.60278C18.1357 8.33976 18.542 9.32023 18.542 10.3645C18.542 11.4075 18.1344 12.3892 17.3975 13.1262C16.6605 13.8645 15.68 14.2708 14.6357 14.2708C13.7633 14.2708 12.9352 13.9869 12.2568 13.4635L9.03034 16.9987C9.02042 17.0086 9.00865 17.0165 8.99569 17.0218C8.98274 17.0272 8.96885 17.03 8.95482 17.03C8.94079 17.03 8.9269 17.0272 8.91395 17.0218C8.90099 17.0165 8.88921 17.0086 8.8793 16.9987L7.8094 15.9441C7.79948 15.9342 7.79161 15.9224 7.78624 15.9095C7.78087 15.8965 7.7781 15.8826 7.7781 15.8686C7.7781 15.8546 7.78087 15.8407 7.78624 15.8277C7.79161 15.8148 7.79948 15.803 7.8094 15.7931ZM12.5732 12.427C13.1253 12.9778 13.8571 13.2812 14.6357 13.2812C15.4144 13.2812 16.1462 12.9778 16.6982 12.427C17.249 11.8749 17.5524 11.1431 17.5524 10.3645C17.5524 9.58586 17.249 8.85278 16.6982 8.302C16.1462 7.75122 15.4144 7.44784 14.6357 7.44784C13.8571 7.44784 13.124 7.74992 12.5732 8.302C12.0225 8.85409 11.7191 9.58586 11.7191 10.3645C11.7191 11.1431 12.0225 11.8762 12.5732 12.427Z" fill="#003D7D"/>
<path d="M7.8094 15.7931L7.52664 15.5101L7.54076 15.496L7.55622 15.4834L7.8094 15.7931ZM11.5381 12.7447L11.8545 12.5L12.0927 12.808L11.7913 13.0544L11.5381 12.7447ZM17.3975 7.60278L17.1149 7.88588L17.1146 7.88563L17.3975 7.60278ZM17.3975 13.1262L17.1144 12.8436L17.1146 12.8434L17.3975 13.1262ZM12.2568 13.4635L11.9614 13.1938L12.2096 12.9218L12.5012 13.1468L12.2568 13.4635ZM9.03034 16.9987L9.32579 17.2683L9.31968 17.275L9.31327 17.2814L9.03034 16.9987ZM8.95482 17.03V17.43V17.03ZM8.8793 16.9987L9.1601 16.7138L9.16223 16.7159L8.8793 16.9987ZM7.8094 15.9441L7.5286 16.229L7.52664 16.227L7.8094 15.9441ZM12.5732 12.427L12.2907 12.7102L12.2904 12.7098L12.5732 12.427ZM16.6982 12.427L16.9814 12.7095L16.9808 12.7102L16.6982 12.427ZM16.6982 8.302L16.9808 8.01883L16.9811 8.01916L16.6982 8.302ZM7.55622 15.4834L11.2849 12.435L11.7913 13.0544L8.06258 16.1028L7.55622 15.4834ZM11.2217 12.9894C10.6424 12.2405 10.3295 11.3248 10.3295 10.3645H11.1295C11.1295 11.1489 11.3843 11.8922 11.8545 12.5L11.2217 12.9894ZM10.3295 10.3645C10.3295 9.21368 10.7795 8.13305 11.5909 7.32019L12.1571 7.88538C11.4946 8.54908 11.1295 9.42679 11.1295 10.3645H10.3295ZM11.5909 7.32019C12.4031 6.50658 13.4868 6.05825 14.6357 6.05825V6.85825C13.6988 6.85825 12.8189 7.22243 12.1571 7.88538L11.5909 7.32019ZM14.6357 6.05825C15.785 6.05825 16.8684 6.50808 17.6803 7.31994L17.1146 7.88563C16.4525 7.22352 15.5724 6.85825 14.6357 6.85825V6.05825ZM17.6801 7.31969C18.4936 8.13182 18.942 9.21418 18.942 10.3645H18.142C18.142 9.42628 17.7779 8.54771 17.1149 7.88588L17.6801 7.31969ZM18.942 10.3645C18.942 11.5138 18.4922 12.5972 17.6803 13.4091L17.1146 12.8434C17.7767 12.1813 18.142 11.3012 18.142 10.3645H18.942ZM17.6806 13.4088C16.8684 14.2224 15.7861 14.6708 14.6357 14.6708V13.8708C15.574 13.8708 16.4525 13.5066 17.1144 12.8436L17.6806 13.4088ZM14.6357 14.6708C13.6753 14.6708 12.7612 14.3578 12.0125 13.7801L12.5012 13.1468C13.1093 13.616 13.8514 13.8708 14.6357 13.8708V14.6708ZM12.5523 13.7331L9.32579 17.2683L8.73489 16.729L11.9614 13.1938L12.5523 13.7331ZM9.31327 17.2814C9.26621 17.3285 9.21034 17.3659 9.14882 17.3914L8.84257 16.6523C8.80697 16.6671 8.77464 16.6887 8.74741 16.7159L9.31327 17.2814ZM9.14882 17.3914C9.08734 17.4168 9.02142 17.43 8.95482 17.43V16.63C8.91627 16.63 8.87813 16.6376 8.84257 16.6523L9.14882 17.3914ZM8.95482 17.43C8.88822 17.43 8.8223 17.4168 8.76082 17.3914L9.06707 16.6523C9.03151 16.6376 8.99337 16.63 8.95482 16.63V17.43ZM8.76082 17.3914C8.69931 17.3659 8.64343 17.3285 8.59637 17.2814L9.16223 16.7159C9.13499 16.6887 9.10266 16.6671 9.06707 16.6523L8.76082 17.3914ZM8.59851 17.2836L7.52861 16.229L8.09019 15.6592L9.16009 16.7138L8.59851 17.2836ZM7.52664 16.227C7.47956 16.18 7.4422 16.1241 7.41671 16.0626L8.15577 15.7563C8.14102 15.7207 8.1194 15.6884 8.09216 15.6612L7.52664 16.227ZM7.41671 16.0626C7.39123 16.0011 7.3781 15.9352 7.3781 15.8686H8.1781C8.1781 15.83 8.1705 15.7919 8.15577 15.7563L7.41671 16.0626ZM7.3781 15.8686C7.3781 15.802 7.39123 15.7361 7.41671 15.6746L8.15577 15.9808C8.1705 15.9453 8.1781 15.9071 8.1781 15.8686H7.3781ZM7.41671 15.6746C7.44219 15.6131 7.47955 15.5572 7.52664 15.5101L8.09216 16.076C8.1194 16.0488 8.14102 16.0164 8.15577 15.9808L7.41671 15.6746ZM12.8558 12.1438C13.3331 12.6201 13.9634 12.8812 14.6357 12.8812V13.6812C13.7508 13.6812 12.9175 13.3355 12.2907 12.7102L12.8558 12.1438ZM14.6357 12.8812C15.3081 12.8812 15.9384 12.6201 16.4157 12.1438L16.9808 12.7102C16.3539 13.3355 15.5207 13.6812 14.6357 13.6812V12.8812ZM16.4151 12.1445C16.8913 11.6671 17.1524 11.0369 17.1524 10.3645H17.9524C17.9524 11.2494 17.6068 12.0827 16.9814 12.7095L16.4151 12.1445ZM17.1524 10.3645C17.1524 9.69187 16.8911 9.06056 16.4154 8.58484L16.9811 8.01916C17.6069 8.64501 17.9524 9.47984 17.9524 10.3645H17.1524ZM16.4157 8.58518C15.9384 8.10895 15.3081 7.84784 14.6357 7.84784V7.04784C15.5207 7.04784 16.3539 7.39349 16.9808 8.01883L16.4157 8.58518ZM14.6357 7.84784C13.9627 7.84784 13.3317 8.1081 12.8564 8.58451L12.2901 8.01949C12.9163 7.39174 13.7515 7.04784 14.6357 7.04784V7.84784ZM12.8564 8.58451C12.3802 9.06186 12.1191 9.69214 12.1191 10.3645H11.3191C11.3191 9.47957 11.6647 8.64631 12.2901 8.01949L12.8564 8.58451ZM12.1191 10.3645C12.1191 11.0371 12.3804 11.6684 12.8561 12.1442L12.2904 12.7098C11.6646 12.084 11.3191 11.2492 11.3191 10.3645H12.1191Z" fill="#003D7D" mask="url(#path-3-outside-1_3631_5677)"/>
</svg>
