<svg width="32" height="32" viewBox="0 0 32 32" fill="none" xmlns="http://www.w3.org/2000/svg">
<mask id="mask0_6705_2732" style="mask-type:alpha" maskUnits="userSpaceOnUse" x="0" y="0" width="32" height="32">
<rect width="32" height="32" fill="#D9D9D9"/>
</mask>
<g mask="url(#mask0_6705_2732)">
<path d="M27.3648 24.5149L23.4019 19.6676C22.52 20.3497 21.4417 20.7187 20.3076 20.7187C18.9501 20.7187 17.6771 20.1889 16.7174 19.2309C15.7576 18.2728 15.2295 16.9965 15.2295 15.6406C15.2295 14.2848 15.7593 13.0085 16.7174 12.0504C17.6755 11.0906 18.9501 10.5625 20.3076 10.5625C21.6635 10.5625 22.9398 11.0923 23.8979 12.0504C24.8576 13.0085 25.3857 14.2831 25.3857 15.6406C25.3857 16.7747 25.0167 17.8513 24.3363 18.7332L28.932 22.9276C28.9449 22.9405 28.9552 22.9558 28.9622 22.9727C28.9691 22.9895 28.9727 23.0076 28.9727 23.0258C28.9727 23.0441 28.9691 23.0621 28.9622 23.079C28.9552 23.0958 28.9449 23.1111 28.932 23.124L27.5611 24.5149C27.5482 24.5278 27.5329 24.538 27.5161 24.545C27.4992 24.552 27.4812 24.5556 27.4629 24.5556C27.4447 24.5556 27.4266 24.552 27.4098 24.545C27.393 24.538 27.3776 24.5278 27.3648 24.5149ZM22.9889 18.3219C23.7049 17.6042 24.0993 16.6529 24.0993 15.6406C24.0993 14.6284 23.7049 13.6771 22.9889 12.9594C22.2712 12.2434 21.3199 11.849 20.3076 11.849C19.2954 11.849 18.3424 12.2434 17.6264 12.9594C16.9104 13.6771 16.516 14.6284 16.516 15.6406C16.516 16.6529 16.9087 17.6059 17.6264 18.3219C18.3441 19.0379 19.2954 19.4323 20.3076 19.4323C21.3199 19.4323 22.2729 19.0379 22.9889 18.3219Z" fill="#003D7D"/>
<path d="M9.3335 10H20.0002V11.3333H9.3335V10Z" fill="#003D7D"/>
<path d="M6.66683 10.6667C6.66683 11.0349 6.36835 11.3333 6.00016 11.3333C5.63197 11.3333 5.3335 11.0349 5.3335 10.6667C5.3335 10.2985 5.63197 10 6.00016 10C6.36835 10 6.66683 10.2985 6.66683 10.6667Z" fill="#003D7D"/>
<path fill-rule="evenodd" clip-rule="evenodd" d="M3.22239 6C2.17918 6 1.3335 6.87461 1.3335 7.95349V13.3798C1.3335 14.4587 2.17918 15.3333 3.22239 15.3333H16.5273C16.5643 14.7019 16.7484 14.1113 17.0449 13.5969H3.22239C3.10647 13.5969 3.01251 13.4997 3.01251 13.3798V7.95349C3.01251 7.83361 3.10647 7.73643 3.22239 7.73643H22.3212V12.2883C23.0051 12.7324 23.5407 13.3955 23.8343 14.1816C23.9408 13.937 24.0002 13.6656 24.0002 13.3798V6H3.22239Z" fill="#003D7D"/>
</g>
</svg>
