<svg width="96" height="96" viewBox="0 0 96 96" fill="none" xmlns="http://www.w3.org/2000/svg">
<circle cx="48" cy="48" r="48" fill="white"/>
<mask id="mask0_3623_7154" style="mask-type:alpha" maskUnits="userSpaceOnUse" x="26" y="26" width="44" height="44">
<rect x="26" y="26" width="44" height="44" fill="#D9D9D9"/>
</mask>
<g mask="url(#mask0_3623_7154)">
</g>
<g clip-path="url(#clip0_3623_7154)">
<path fill-rule="evenodd" clip-rule="evenodd" d="M57.8051 52.5964C56.4978 54.7143 54.7143 56.4978 52.5965 57.805L60.0513 65.2598C61.4895 66.6981 63.8213 66.6981 65.2596 65.2598C65.2596 65.2597 65.2597 65.2596 65.2599 65.2595C66.6981 63.8213 66.6981 61.4895 65.2599 60.0512L57.8051 52.5964ZM44.2675 29.6615C36.2063 29.6615 29.6615 36.2062 29.6615 44.2674C29.6615 52.3287 36.2063 58.8733 44.2675 58.8733C52.3287 58.8733 58.8733 52.3287 58.8733 44.2674C58.8733 36.2062 52.3287 29.6615 44.2675 29.6615ZM44.2675 34.6848C49.5562 34.6848 53.85 38.9786 53.85 44.2674C53.85 49.5562 49.5562 53.85 44.2675 53.85C38.9787 53.85 34.6849 49.5562 34.6849 44.2674C34.6849 38.9786 38.9787 34.6848 44.2675 34.6848Z" fill="#003D7D"/>
</g>
<defs>
<clipPath id="clip0_3623_7154">
<rect width="36.6667" height="36.6667" fill="white" transform="matrix(-1 0 0 1 66.3333 29.6666)"/>
</clipPath>
</defs>
</svg>
