<svg width="165" height="172" viewBox="0 0 165 172" fill="none" xmlns="http://www.w3.org/2000/svg">
<ellipse cx="72.731" cy="106.374" rx="37.8594" ry="2.91226" fill="#D9D9D9"/>
<path fill-rule="evenodd" clip-rule="evenodd" d="M107.657 19.088C125.633 22.7119 133.155 43.7662 140.487 60.555C146.799 75.0083 151.731 91.2879 145.512 105.771C139.801 119.071 123.117 121.418 110.966 129.303C97.4902 138.047 87.6515 153.889 71.5746 153.751C52.4618 153.586 32.915 144.561 22.5133 128.54C11.7473 111.958 9.86209 89.5477 18.2922 71.6827C25.8863 55.5895 46.7076 53.7763 62.0551 44.7437C77.6805 35.5475 89.8696 15.5022 107.657 19.088Z" fill="#E53935" fill-opacity="0.05"/>
<path d="M45.2725 85.4054H101.798C104.325 85.4054 106.376 87.4564 106.376 89.983V106.233H40.6962V89.983C40.6962 87.4564 42.7471 85.4054 45.2738 85.4054H45.2725Z" fill="#2366AC"/>
<path d="M90.8811 85.4054H101.798C104.325 85.4054 106.376 87.4564 106.376 89.983V106.233H86.3035V89.983C86.3035 87.4564 88.3544 85.4054 90.8811 85.4054Z" fill="#134982"/>
<path d="M80.2588 94.3116H47.1676V97.9405H80.2588V94.3116Z" fill="#1A1A35"/>
<path d="M50.3659 91.1342C50.3904 92.8435 47.7052 92.8435 47.7297 91.1342C47.7052 89.4248 50.3904 89.4248 50.3659 91.1342Z" fill="#569131"/>
<path d="M54.4198 91.1342C54.4443 92.8435 51.7591 92.8435 51.7836 91.1342C51.7591 89.4248 54.4443 89.4248 54.4198 91.1342Z" fill="white"/>
<path d="M58.4753 91.1342C58.4997 92.8435 55.8145 92.8435 55.839 91.1342C55.8145 89.4248 58.4997 89.4248 58.4753 91.1342Z" fill="white"/>
<path d="M76.1724 91.1342C76.1969 92.8435 73.5117 92.8435 73.5362 91.1342C73.5117 89.4248 76.1969 89.4248 76.1724 91.1342Z" fill="#FF0000"/>
<path d="M80.2261 91.1342C80.2506 92.8435 77.5654 92.8435 77.5899 91.1342C77.5654 89.4248 80.2506 89.4248 80.2261 91.1342Z" fill="#FF0000"/>
<path d="M58.1868 94.3116H47.1676V97.9405H58.1868V94.3116Z" fill="#3581E4"/>
<path d="M69.2058 94.3116H58.1865V97.9405H69.2058V94.3116Z" fill="#65A3F4"/>
<path d="M80.2263 94.3116H69.207V97.9405H80.2263V94.3116Z" fill="white"/>
<mask id="mask0_3689_5652" style="mask-type:alpha" maskUnits="userSpaceOnUse" x="93" y="63" width="30" height="30">
<rect x="93.1168" y="63.2721" width="29.7051" height="29.7051" fill="#D9D9D9"/>
</mask>
<g mask="url(#mask0_3689_5652)">
<path d="M107.97 84.3131C108.32 84.3131 108.614 84.1943 108.852 83.9566C109.089 83.7198 109.207 83.4261 109.207 83.0754C109.207 82.7247 109.089 82.4305 108.852 82.1929C108.614 81.9561 108.32 81.8377 107.97 81.8377C107.619 81.8377 107.325 81.9561 107.088 82.1929C106.851 82.4305 106.732 82.7247 106.732 83.0754C106.732 83.4261 106.851 83.7198 107.088 83.9566C107.325 84.1943 107.619 84.3131 107.97 84.3131ZM106.732 79.3623H109.207V71.936H106.732V79.3623ZM107.97 90.5017C106.257 90.5017 104.648 90.1766 103.143 89.5263C101.637 88.877 100.327 87.9953 99.2128 86.8814C98.0989 85.7674 97.2172 84.4575 96.5678 82.9516C95.9176 81.4457 95.5925 79.8367 95.5925 78.1246C95.5925 76.4124 95.9176 74.8034 96.5678 73.2975C97.2172 71.7916 98.0989 70.4817 99.2128 69.3677C100.327 68.2538 101.637 67.3717 103.143 66.7215C104.648 66.0721 106.257 65.7474 107.97 65.7474C109.682 65.7474 111.291 66.0721 112.797 66.7215C114.303 67.3717 115.613 68.2538 116.726 69.3677C117.84 70.4817 118.722 71.7916 119.371 73.2975C120.022 74.8034 120.347 76.4124 120.347 78.1246C120.347 79.8367 120.022 81.4457 119.371 82.9516C118.722 84.4575 117.84 85.7674 116.726 86.8814C115.613 87.9953 114.303 88.877 112.797 89.5263C111.291 90.1766 109.682 90.5017 107.97 90.5017Z" fill="#E53935"/>
</g>
</svg>
