<svg width="20" height="20" viewBox="0 0 20 20" fill="none" xmlns="http://www.w3.org/2000/svg">
<mask id="mask0_6476_19436" style="mask-type:alpha" maskUnits="userSpaceOnUse" x="0" y="0" width="20" height="20">
<rect width="20" height="20" fill="#D9D9D9"/>
</mask>
<g mask="url(#mask0_6476_19436)">
<path fill-rule="evenodd" clip-rule="evenodd" d="M4.65893 3.35913V7.56287H6.45341V3.35913H7.62372V7.56287H9.39219V3.35913H10.5365V7.56287H12.305V3.35913H13.4493V7.56287H15.2177V3.35913H17.3763V12.4629H14.7756V14.4745H12.539V16.6409H7.38966V14.4745H5.17907V12.4629H2.52637V3.35913H4.65893ZM7.30852 12.0245H6.73845V9.06177H7.43335C7.82033 9.06177 8.09081 9.11954 8.27806 9.3011C8.42369 9.4414 8.5194 9.66835 8.5194 9.92006C8.5194 10.2337 8.39041 10.4689 8.14074 10.6215C7.89344 10.7703 7.6343 10.7702 7.33252 10.7701C7.32455 10.7701 7.31655 10.7701 7.30852 10.7701V12.0245ZM7.54986 9.61471H7.30852V10.2213H7.57483C7.83282 10.2213 7.96181 10.1223 7.96181 9.92006C7.96181 9.72199 7.82033 9.61471 7.54986 9.61471ZM8.90459 10.931C8.90459 10.2667 9.44554 9.77564 10.0489 9.77564C10.6939 9.77564 11.2223 10.2791 11.2223 10.9269C11.2223 11.5624 10.7272 12.0823 10.0531 12.0823C9.41225 12.0823 8.90459 11.5747 8.90459 10.931ZM10.6647 10.931C10.6647 10.5596 10.4192 10.2956 10.0572 10.2956C9.71185 10.2956 9.46218 10.5638 9.46218 10.9269C9.46218 11.2983 9.69937 11.5624 10.0572 11.5624C10.3984 11.5624 10.6647 11.3148 10.6647 10.931ZM13.368 12.0245H11.7368V9.06177H13.368V9.61471H12.3069V10.1429H13.368V10.6958H12.3069V11.4716H13.368V12.0245Z" fill="#003D7D"/>
<path fill-rule="evenodd" clip-rule="evenodd" d="M2.5 3.33325H4.68458V7.53699H6.42704V3.33325H7.64937V7.53699H9.36582V3.33325H10.5621V7.53699H12.2786V3.33325H13.4749V7.53699H15.1914V3.33325H17.402V12.4886H14.8013V14.5002H12.5647V16.6666H7.36329V14.5002H5.1527V12.4886H2.5V3.33325ZM2.55201 3.38483V12.4371H5.20472V14.4487H7.41531V16.615H12.5127V14.4487H14.7493V12.4371H17.3499V3.38483H15.2434V7.58857H13.4229V3.38483H12.3306V7.58857H10.5101V3.38483H9.41784V7.58857H7.59735V3.38483H6.47906V7.58857H4.63257V3.38483H2.55201ZM6.71208 9.03589H7.43299C7.82136 9.03589 8.10089 9.09356 8.29582 9.28252C8.44712 9.42827 8.54505 9.6622 8.54505 9.91997C8.54505 10.2419 8.41191 10.4857 8.15403 10.6434L8.15387 10.6435C7.90034 10.796 7.63477 10.7959 7.33553 10.7958H7.33416V12.0502H6.71208V9.03589ZM6.76409 9.08747V11.9986H7.28215V10.7442L7.33217 10.7442C7.63508 10.7443 7.88674 10.7438 8.12683 10.5994C8.36822 10.4518 8.49303 10.2252 8.49303 9.91997C8.49303 9.67432 8.39955 9.45436 8.25957 9.31951L8.25951 9.31945C8.07994 9.14534 7.81854 9.08747 7.43299 9.08747H6.76409ZM11.7105 9.03589H13.3936V9.64041H12.3326V10.117H13.3936V10.7215H12.3326V11.4457H13.3936V12.0502H11.7105V9.03589ZM11.7625 9.08747V11.9986H13.3416V11.4973H12.2805V10.6699H13.3416V10.1686H12.2805V9.58883H13.3416V9.08747H11.7625ZM7.28215 9.58883H7.5495C7.68758 9.58883 7.79703 9.61611 7.87253 9.67241C7.94926 9.72962 7.98746 9.81418 7.98746 9.91997C7.98746 10.0269 7.95304 10.1106 7.88073 10.1667C7.80966 10.2218 7.70609 10.247 7.57447 10.247H7.28215V9.58883ZM7.33416 9.64041V10.1954H7.57447C7.70084 10.1954 7.79076 10.171 7.84868 10.1261C7.90537 10.0821 7.93544 10.0152 7.93544 9.91997C7.93544 9.82769 7.9029 9.75958 7.84127 9.71363C7.77842 9.66677 7.6819 9.64041 7.5495 9.64041H7.33416ZM8.87823 10.9309C8.87823 10.252 9.43118 9.74976 10.0485 9.74976C10.7074 9.74976 11.248 10.2642 11.248 10.9268C11.248 11.5761 10.7415 12.108 10.0527 12.108C9.39728 12.108 8.87823 11.5886 8.87823 10.9309ZM10.0485 9.80134C9.45917 9.80134 8.93024 10.2812 8.93024 10.9309C8.93024 11.5606 9.4265 12.0564 10.0527 12.0564C10.7121 12.0564 11.196 11.5484 11.196 10.9268C11.196 10.2937 10.6796 9.80134 10.0485 9.80134ZM10.0569 10.3213C9.72757 10.3213 9.48783 10.5762 9.48783 10.9268C9.48783 11.1071 9.54534 11.2594 9.64431 11.3664C9.74309 11.4731 9.88474 11.5365 10.0569 11.5365C10.221 11.5365 10.366 11.477 10.4701 11.3724C10.574 11.2678 10.6384 11.1167 10.6384 10.9309C10.6384 10.7509 10.5789 10.5986 10.4774 10.4916C10.3761 10.3847 10.2312 10.3213 10.0569 10.3213ZM9.43582 10.9268C9.43582 10.5512 9.69541 10.2697 10.0569 10.2697C10.2445 10.2697 10.4034 10.3383 10.5153 10.4563C10.6271 10.5741 10.6904 10.7396 10.6904 10.9309C10.6904 11.1289 10.6216 11.2935 10.5071 11.4086C10.3927 11.5237 10.234 11.5881 10.0569 11.5881C9.87113 11.5881 9.71525 11.5193 9.60598 11.4012C9.4969 11.2833 9.43582 11.1179 9.43582 10.9268Z" fill="#003D7D"/>
</g>
</svg>
