<svg width="24" height="24" viewBox="0 0 24 24" fill="none" xmlns="http://www.w3.org/2000/svg">
<path d="M1.71436 10.6285V19.3713C1.71436 19.6555 1.9445 19.8856 2.22864 19.8856H4.80007V9.5999H2.74293C2.17496 9.5999 1.71436 10.0605 1.71436 10.6285ZM13.2858 9.08561H12.5144V7.7999C12.5144 7.65783 12.3993 7.54276 12.2572 7.54276H11.7429C11.6009 7.54276 11.4858 7.65783 11.4858 7.7999V9.85704C11.4858 9.99911 11.6009 10.1142 11.7429 10.1142H13.2858C13.4279 10.1142 13.5429 9.99911 13.5429 9.85704V9.34276C13.5429 9.20069 13.4279 9.08561 13.2858 9.08561ZM17.7135 7.02976L12.5706 3.60108C12.4016 3.48852 12.2031 3.42847 12.0001 3.42847C11.797 3.42847 11.5985 3.48852 11.4295 3.60108L6.28668 7.02976C6.14581 7.12367 6.0303 7.2509 5.9504 7.40016C5.8705 7.54942 5.82868 7.7161 5.82864 7.8854V19.8856H9.94293V15.257C9.94293 14.9729 10.1731 14.7428 10.4572 14.7428H13.5429C13.8271 14.7428 14.0572 14.9729 14.0572 15.257V19.8856H18.1715V7.88572C18.1715 7.54179 17.9995 7.22036 17.7135 7.02976ZM12.0001 11.657C10.58 11.657 9.42864 10.5057 9.42864 9.08561C9.42864 7.66554 10.58 6.51418 12.0001 6.51418C13.4201 6.51418 14.5715 7.66554 14.5715 9.08561C14.5715 10.5057 13.4201 11.657 12.0001 11.657ZM21.2572 9.5999H19.2001V19.8856H21.7715C22.0556 19.8856 22.2858 19.6555 22.2858 19.3713V10.6285C22.2858 10.0605 21.8252 9.5999 21.2572 9.5999Z" fill="#003D7D"/>
</svg>
