<svg width="24" height="24" viewBox="0 0 24 24" fill="none" xmlns="http://www.w3.org/2000/svg">
<path d="M1.71429 10.6286V19.3715C1.71429 19.6556 1.94444 19.8857 2.22858 19.8857H4.80001V9.60002H2.74287C2.1749 9.60002 1.71429 10.0606 1.71429 10.6286ZM13.2857 9.08574H12.5143V7.80002C12.5143 7.65795 12.3992 7.54288 12.2572 7.54288H11.7429C11.6008 7.54288 11.4857 7.65795 11.4857 7.80002V9.85716C11.4857 9.99924 11.6008 10.1143 11.7429 10.1143H13.2857C13.4278 10.1143 13.5429 9.99924 13.5429 9.85716V9.34288C13.5429 9.20081 13.4278 9.08574 13.2857 9.08574ZM17.7134 7.02988L12.5705 3.6012C12.4016 3.48864 12.203 3.42859 12 3.42859C11.797 3.42859 11.5985 3.48864 11.4295 3.6012L6.28662 7.02988C6.14575 7.12379 6.03024 7.25102 5.95034 7.40028C5.87044 7.54955 5.82862 7.71622 5.82858 7.88552V19.8857H9.94287V15.2572C9.94287 14.973 10.173 14.7429 10.4572 14.7429H13.5429C13.827 14.7429 14.0572 14.973 14.0572 15.2572V19.8857H18.1714V7.88584C18.1714 7.54191 17.9995 7.22049 17.7134 7.02988ZM12 11.6572C10.5799 11.6572 9.42858 10.5058 9.42858 9.08574C9.42858 7.66566 10.5799 6.51431 12 6.51431C13.4201 6.51431 14.5714 7.66566 14.5714 9.08574C14.5714 10.5058 13.4201 11.6572 12 11.6572ZM21.2572 9.60002H19.2V19.8857H21.7714C22.0556 19.8857 22.2857 19.6556 22.2857 19.3715V10.6286C22.2857 10.0606 21.8251 9.60002 21.2572 9.60002Z" fill="white"/>
</svg>
