<svg width="24" height="24" viewBox="0 0 24 24" fill="none" xmlns="http://www.w3.org/2000/svg">
<path d="M12 2.25L9.75 6H11.25V15.0469C10.6637 14.8006 10.0587 14.7059 9.49219 14.625C8.83594 14.5312 8.23753 14.4388 7.92188 14.2734C7.60622 14.1081 7.5 14.0312 7.5 13.5V11.7891C7.94767 11.5295 8.25 11.0547 8.25 10.5C8.25 9.67157 7.57843 9 6.75 9C5.92157 9 5.25 9.67157 5.25 10.5C5.25 11.0547 5.55233 11.5295 6 11.7891V13.5C6 14.4688 6.55003 15.2357 7.21875 15.5859C7.88747 15.9362 8.60156 16.0312 9.25781 16.125C9.91406 16.2188 10.5125 16.3112 10.8281 16.4766C11.1438 16.6419 11.25 16.7188 11.25 17.25C11.2489 17.2734 11.2489 17.2969 11.25 17.3203V17.3906C10.3812 17.7023 9.75 18.524 9.75 19.5C9.75 20.7426 10.7574 21.75 12 21.75C13.2426 21.75 14.25 20.7426 14.25 19.5C14.25 18.524 13.6188 17.7023 12.75 17.3906C12.7544 17.3439 12.7544 17.2968 12.75 17.25V15.8672C12.7531 15.8282 12.7531 15.789 12.75 15.75C12.75 15.25 12.8932 15.104 13.3125 14.8594C13.7318 14.6148 14.4375 14.4141 15.1875 14.2266C15.9375 14.0391 16.7318 13.8648 17.4375 13.4531C18.1432 13.0415 18.75 12.25 18.75 11.25V9.75H19.5V6.75H16.5V9.75H17.25V11.25C17.25 11.75 17.1068 11.896 16.6875 12.1406C16.2682 12.3852 15.5625 12.5859 14.8125 12.7734C14.1283 12.9445 13.4071 13.1138 12.75 13.4531V6H14.25L12 2.25Z" fill="#003D7D"/>
</svg>
