<svg width="326" height="184" viewBox="0 0 326 184" fill="none" xmlns="http://www.w3.org/2000/svg">
<path d="M7.55615 177.186H319.368L274.892 34.7017C267.257 10.2457 242.196 -4.32191 217.163 1.14665C34.1045 49.643 49.2873 -7.33838 7.55615 177.186Z" fill="#E3EEFD"/>
<mask id="mask0_3631_5799" style="mask-type:alpha" maskUnits="userSpaceOnUse" x="133" y="84" width="59" height="60">
<path d="M133.051 84.4844H191.803V143.237H133.051V84.4844Z" fill="#D9D9D9"/>
</mask>
<g mask="url(#mask0_3631_5799)">
</g>
<mask id="mask1_3631_5799" style="mask-type:alpha" maskUnits="userSpaceOnUse" x="133" y="84" width="59" height="60">
<path fill-rule="evenodd" clip-rule="evenodd" d="M191.676 84.6115H133.178V143.109H191.676V84.6115ZM133.051 84.4844V143.237H191.803V84.4844H133.051Z" fill="white"/>
</mask>
<g mask="url(#mask1_3631_5799)">
<path d="M159.979 138.341V119.736L148.718 130.997L145.291 127.569L159 113.86L145.291 100.152L148.718 96.7244L159.979 107.985V89.3804H162.427L176.381 103.334L165.854 113.86L176.381 124.387L162.427 138.341H159.979ZM164.875 107.985L169.526 103.334L164.875 98.8052V107.985ZM164.875 128.916L169.526 124.387L164.875 119.736V128.916Z" fill="white"/>
<path fill-rule="evenodd" clip-rule="evenodd" d="M159.979 138.341H162.427L176.381 124.387L165.854 113.86L176.381 103.334L162.427 89.3804H159.979V107.985L148.718 96.7244L145.291 100.152L159 113.86L145.291 127.569L148.718 130.997L159.979 119.736V138.341ZM148.718 130.817L160.106 119.429V138.213H162.374L176.201 124.387L165.675 113.86L176.201 103.334L162.374 89.5075H160.106V108.292L148.718 96.9042L145.471 100.152L159.18 113.86L145.471 127.569L148.718 130.817ZM164.748 108.292V98.504L169.707 103.333L164.748 108.292ZM164.748 129.217V119.429L169.707 124.388L164.748 129.217ZM169.526 103.334L164.875 107.985V98.8052L169.526 103.334ZM169.526 124.387L164.875 119.736V128.916L169.526 124.387Z" fill="white"/>
</g>
<path opacity="0.57" d="M13.5355 121.436H71.371V150.576H108.799V132.74L155.941 146.142V163.639H184.357V138.745H214.592V160.029H247.77V120.592H319.368V183.849H7.69189L13.5355 121.436Z" fill="#B9D4FD"/>
<path d="M154.707 173.638C154.582 173.596 153.973 173.751 153.989 173.499V171.203C153.972 170.956 154.584 171.103 154.707 171.065C154.995 170.928 154.784 173.429 154.845 173.498C154.845 173.574 154.783 173.636 154.707 173.636V173.638Z" fill="#1A1A35"/>
<path d="M156.297 173.638C156.172 173.596 155.563 173.751 155.578 173.499V171.203C155.562 170.956 156.173 171.103 156.297 171.065C156.585 170.928 156.374 173.429 156.435 173.498C156.435 173.574 156.373 173.636 156.297 173.636V173.638Z" fill="#1A1A35"/>
<path d="M157.887 173.638C157.762 173.596 157.154 173.751 157.169 173.499V171.203C157.152 170.956 157.764 171.103 157.887 171.065C158.176 170.928 157.965 173.429 158.026 173.498C158.026 173.574 157.963 173.636 157.887 173.636V173.638Z" fill="#1A1A35"/>
<path d="M159.477 173.638C159.353 173.596 158.744 173.751 158.759 173.499V171.203C158.743 170.956 159.354 171.103 159.477 171.065C159.766 170.928 159.555 173.429 159.616 173.498C159.616 173.574 159.554 173.636 159.477 173.636V173.638Z" fill="#1A1A35"/>
<path d="M161.066 173.638C160.942 173.596 160.333 173.751 160.348 173.499V171.203C160.331 170.956 160.943 171.103 161.066 171.065C161.355 170.928 161.144 173.429 161.205 173.498C161.205 173.574 161.142 173.636 161.066 173.636V173.638Z" fill="#1A1A35"/>
<path d="M162.657 173.638C162.532 173.596 161.923 173.751 161.938 173.499V171.203C161.922 170.956 162.533 171.103 162.657 171.065C162.945 170.928 162.734 173.429 162.795 173.498C162.795 173.574 162.733 173.636 162.657 173.636V173.638Z" fill="#1A1A35"/>
<path d="M166.602 173.638C166.478 173.596 165.869 173.751 165.884 173.499V171.203C165.868 170.956 166.479 171.103 166.602 171.065C166.891 170.928 166.68 173.429 166.741 173.498C166.741 173.574 166.679 173.636 166.602 173.636V173.638Z" fill="#1A1A35"/>
<path d="M168.192 173.638C168.068 173.596 167.459 173.751 167.474 173.499V171.203C167.457 170.956 168.069 171.103 168.192 171.065C168.481 170.928 168.27 173.429 168.331 173.498C168.331 173.574 168.268 173.636 168.192 173.636V173.638Z" fill="#1A1A35"/>
<path d="M169.782 173.638C169.658 173.596 169.049 173.751 169.064 173.499V171.203C169.048 170.956 169.659 171.103 169.782 171.065C170.071 170.928 169.86 173.429 169.921 173.498C169.921 173.574 169.859 173.636 169.782 173.636V173.638Z" fill="#1A1A35"/>
<path d="M171.373 173.638C171.248 173.596 170.639 173.751 170.655 173.499V171.203C170.638 170.956 171.25 171.103 171.373 171.065C171.661 170.928 171.45 173.429 171.511 173.498C171.511 173.574 171.449 173.636 171.373 173.636V173.638Z" fill="#1A1A35"/>
<path d="M172.963 173.638C172.838 173.596 172.229 173.751 172.244 173.499V171.203C172.228 170.956 172.839 171.103 172.963 171.065C173.251 170.928 173.04 173.429 173.101 173.498C173.101 173.574 173.039 173.636 172.963 173.636V173.638Z" fill="#1A1A35"/>
<path d="M174.552 173.638C174.427 173.596 173.819 173.751 173.834 173.499V171.203C173.817 170.956 174.429 171.103 174.552 171.065C174.841 170.928 174.63 173.429 174.691 173.498C174.691 173.574 174.628 173.636 174.552 173.636V173.638Z" fill="#1A1A35"/>
<path d="M178.498 173.638C178.373 173.596 177.764 173.751 177.78 173.499V171.203C177.763 170.956 178.375 171.103 178.498 171.065C178.786 170.928 178.575 173.429 178.636 173.498C178.636 173.574 178.574 173.636 178.498 173.636V173.638Z" fill="#1A1A35"/>
<path d="M180.088 173.638C179.964 173.596 179.355 173.751 179.37 173.499V171.203C179.353 170.956 179.965 171.103 180.088 171.065C180.377 170.928 180.166 173.429 180.227 173.498C180.227 173.574 180.164 173.636 180.088 173.636V173.638Z" fill="#1A1A35"/>
<path d="M181.679 173.638C181.554 173.596 180.945 173.751 180.96 173.499V171.203C180.944 170.956 181.555 171.103 181.679 171.065C181.967 170.928 181.756 173.429 181.817 173.498C181.817 173.574 181.755 173.636 181.679 173.636V173.638Z" fill="#1A1A35"/>
<path d="M183.268 173.638C183.143 173.596 182.534 173.751 182.55 173.499V171.203C182.533 170.956 183.145 171.103 183.268 171.065C183.556 170.928 183.345 173.429 183.406 173.498C183.406 173.574 183.344 173.636 183.268 173.636V173.638Z" fill="#1A1A35"/>
<path d="M184.858 173.638C184.734 173.596 184.125 173.751 184.14 173.499V171.203C184.123 170.956 184.735 171.103 184.858 171.065C185.147 170.928 184.936 173.429 184.997 173.498C184.997 173.574 184.934 173.636 184.858 173.636V173.638Z" fill="#1A1A35"/>
<path d="M186.449 173.638C186.324 173.596 185.716 173.751 185.731 173.499V171.203C185.714 170.956 186.326 171.103 186.449 171.065C186.738 170.928 186.527 173.429 186.588 173.498C186.588 173.574 186.525 173.636 186.449 173.636V173.638Z" fill="#1A1A35"/>
<path d="M114.093 141.881H211.141C215.479 141.881 219 145.403 219 149.741V177.641H106.236V149.741C106.236 145.403 109.757 141.881 114.095 141.881H114.093Z" fill="#38385C"/>
<path d="M192.397 141.881H211.141C215.479 141.881 219 145.403 219 149.741V177.641H184.538V149.741C184.538 145.403 188.059 141.881 192.397 141.881Z" fill="#1A1A35"/>
<path d="M174.16 157.173H117.347V163.403H174.16V157.173Z" fill="#1A1A35"/>
<path d="M122.837 151.717C122.879 154.652 118.269 154.652 118.311 151.717C118.269 148.782 122.879 148.782 122.837 151.717Z" fill="#FF5C3D"/>
<path d="M129.798 151.717C129.84 154.652 125.23 154.652 125.272 151.717C125.23 148.782 129.84 148.782 129.798 151.717Z" fill="white"/>
<path d="M136.76 151.717C136.802 154.652 132.192 154.652 132.234 151.717C132.192 148.782 136.802 148.782 136.76 151.717Z" fill="white"/>
<path d="M167.144 151.717C167.186 154.652 162.576 154.652 162.618 151.717C162.576 148.782 167.186 148.782 167.144 151.717Z" fill="#FF5C3D"/>
<path d="M174.104 151.717C174.146 154.652 169.536 154.652 169.578 151.717C169.536 148.782 174.146 148.782 174.104 151.717Z" fill="#FF5C3D"/>
<path d="M136.265 157.173H117.347V163.403H136.265V157.173Z" fill="#3875FF"/>
<path d="M155.183 157.173H136.265V163.403H155.183V157.173Z" fill="#A4C4FF"/>
<path d="M174.104 157.173H155.186V163.403H174.104V157.173Z" fill="white"/>
<path d="M235.056 117.649C232.057 147.869 270.938 181.588 313.661 158.902L308.846 143.535L235.056 117.649Z" fill="#739BFD"/>
<path d="M325.309 113.782C324.296 173.091 236.059 173.082 235.055 113.78C236.068 54.4721 324.305 54.481 325.309 113.782Z" fill="#B9D4FD"/>
<path d="M303.836 96.6577C303.836 96.5774 303.835 96.5427 303.835 96.5348C303.835 96.5497 303.836 96.6577 303.836 96.6577Z" fill="#D9FFFF"/>
<path d="M303.836 96.6577C303.836 96.5774 303.835 96.5427 303.835 96.5348C303.835 96.5497 303.836 96.6577 303.836 96.6577Z" fill="#D9FFFF"/>
<path d="M256.101 97.1828C256.101 97.1828 256.1 97.0747 256.1 97.0599C256.1 97.0678 256.1 97.1035 256.101 97.1828Z" fill="#D9FFFF"/>
<path d="M256.101 97.1828C256.101 97.1828 256.1 97.0747 256.1 97.0599C256.1 97.0678 256.1 97.1035 256.101 97.1828Z" fill="#D9FFFF"/>
<path d="M279.785 83.9769C285.387 89.8717 294.296 94.6747 303.809 96.6841C303.816 97.316 303.854 100.814 304.034 116.94C304.274 138.451 283.776 149.098 280.594 150.732C277.49 149.335 256.594 138.975 256.355 117.464C256.176 101.338 256.136 97.8392 256.129 97.2082C265.595 94.9902 274.315 89.9933 279.786 83.9759L279.785 83.9769Z" fill="white"/>
<path d="M279.868 87.8642C285.348 92.8027 292.921 96.6633 301.235 98.74L301.437 116.966C301.53 125.306 298.251 132.873 291.693 139.457C287.383 143.783 282.84 146.478 280.533 147.692C280.433 147.643 280.324 147.586 280.216 147.532L279.821 87.9087C279.837 87.8939 279.853 87.88 279.869 87.8662L279.868 87.8642Z" fill="#007880"/>
<path d="M279.82 87.9067L280.215 147.53C277.8 146.3 273.408 143.752 269.193 139.703C262.489 133.265 259.044 125.772 258.951 117.433L258.748 99.2068C266.989 96.9541 274.455 92.9441 279.82 87.9067Z" fill="#008F99"/>
<path d="M270.352 114.241L270.446 128.361C270.456 129.934 289.742 129.807 289.731 128.235L289.637 114.114L270.352 114.241ZM277.648 119.524C277.639 118.213 278.694 117.149 280.01 117.141C281.326 117.132 282.404 118.183 282.412 119.493C282.418 120.45 281.843 121.286 281.02 121.662L281.046 125.672C281.05 126.205 280.617 126.651 280.072 126.654C279.536 126.658 279.098 126.218 279.094 125.685L279.068 121.683C278.23 121.318 277.653 120.491 277.647 119.525L277.648 119.524Z" fill="white"/>
<path d="M272.032 113.223L273.985 113.21L273.979 112.26C273.957 108.966 276.632 106.267 279.941 106.246C283.25 106.224 285.961 108.886 285.983 112.181L285.989 113.131L287.941 113.119L287.935 112.168C287.906 107.802 284.315 104.274 279.928 104.303C275.542 104.331 271.998 107.907 272.027 112.273L272.032 113.223Z" fill="white"/>
<path d="M325.986 177.608C325.562 177.185 -0.0911375 178.416 0.000386522 177.187C-0.411472 176.784 328.456 175.591 325.986 177.608Z" fill="#38385C"/>
<path d="M66.3064 158.38H47.0991C46.5258 158.38 46.0605 158.845 46.0605 159.418V163.278C46.0631 164.427 47.3457 164.351 48.1605 164.316L49.874 177.543H62.4739L64.556 164.316C65.4331 164.257 67.3488 164.685 67.3437 163.278V159.418C67.3437 158.845 66.8785 158.38 66.3052 158.38H66.3064Z" fill="#38385C"/>
<path d="M48.1606 164.316H61.4329L49.4 173.877L48.1606 164.316Z" fill="#1A1A35"/>
<path d="M49.3769 158.97C40.4901 159.6 35.5822 149.824 33.894 143.172C33.894 143.172 46.3896 147.458 48.1603 150.396C48.1603 150.396 43.3426 138.091 48.979 131.978C48.979 131.978 56.2119 142.726 56.7013 148.49C56.7013 148.49 59.8564 139.996 70.8926 138.17C70.8926 138.17 67.8253 150.562 62.4762 152.539C62.4762 152.539 66.8427 149.76 77.8002 153.412C70.3587 158.713 61.4466 159.504 49.3756 158.97H49.3769Z" fill="#A7BD37"/>
<path d="M57.8502 158.38C57.8502 158.38 59.1506 168.81 78.4672 166.158C78.4672 166.158 68.9449 156.37 62.9031 155.989C56.8612 155.608 57.8502 158.379 57.8502 158.379V158.38Z" fill="#A7BD37"/>
<path d="M51.0064 158.38C51.0064 158.38 54.8606 169.203 33.4287 170.642C33.4287 170.642 42.2112 157.985 46.7963 157.467C51.3814 156.95 51.0051 158.38 51.0051 158.38H51.0064Z" fill="#A7BD37"/>
<path d="M53.054 155.953C44.6567 162.837 56.2485 171.173 59.4696 174.263C59.4696 174.263 61.7552 159.613 60.3544 157.354C58.9535 155.095 53.054 155.953 53.054 155.953Z" fill="#A7BD37"/>
<path d="M46.0605 157.64C46.0605 157.64 49.2321 156.286 51.0066 158.38C52.4609 154.396 56.1511 154.376 59.0964 156.359C59.0964 156.359 59.4065 153.849 62.3048 153.139C57.3371 149.325 48.9614 151.307 46.0605 157.639V157.64Z" fill="#3E5409"/>
<path d="M53.0538 155.953C53.0538 155.953 51.7229 166.062 59.4694 174.263C55.5555 171.55 44.8065 162.84 53.0538 155.953Z" fill="#3E5409"/>
<path d="M48.5709 155.793C48.5709 155.793 37.1444 150.753 33.894 143.172C33.894 143.172 35.2949 154.458 44.8477 158.217C44.8477 158.217 47.0735 156.614 50.0252 157.496L48.5722 155.793H48.5709Z" fill="#3E5409"/>
<path d="M33.4287 170.642C33.4287 170.642 47.3035 164.754 51.1958 161.016C50.0492 165.079 50.1153 169.147 33.4287 170.642Z" fill="#3E5409"/>
<path d="M59.0957 156.359C59.0957 156.359 67.0036 166.612 78.467 166.159C78.467 166.159 66.7011 168.976 60.808 163.173C60.808 163.173 60.372 158.252 59.0957 156.359Z" fill="#3E5409"/>
<path d="M59.096 156.359C59.096 156.359 63.779 154.808 68.3781 158.023C68.3781 158.023 64.1019 152.146 57.3838 151.256L59.0973 156.359H59.096Z" fill="#3E5409"/>
<path d="M57.3823 152.203C57.3823 152.203 69.2118 143.16 70.8936 138.171C70.8936 138.171 68.5622 151.608 60.8081 153.781L57.3823 152.203Z" fill="#3E5409"/>
<path d="M48.9802 131.978C48.9802 131.978 46.1328 147.533 53.2386 153.78C46.4404 153.828 43.0871 137.751 48.9802 131.978Z" fill="#3E5409"/>
<g filter="url(#filter0_i_3631_5799)">
<path d="M39.2388 76.2218C39.2388 72.0095 42.6535 68.5948 46.8658 68.5948H121.102C125.314 68.5948 128.729 72.0095 128.729 76.2218V88.9335C128.729 93.1457 125.314 96.5605 121.102 96.5605H46.8658C42.6535 96.5605 39.2388 93.1457 39.2388 88.9335V76.2218Z" fill="#B9D4FD"/>
</g>
<g filter="url(#filter1_i_3631_5799)">
<path fill-rule="evenodd" clip-rule="evenodd" d="M121.102 71.1371H46.8658C44.0576 71.1371 41.7811 73.4136 41.7811 76.2218V88.9335C41.7811 91.7416 44.0576 94.0181 46.8658 94.0181H121.102C123.91 94.0181 126.187 91.7416 126.187 88.9335V76.2218C126.187 73.4136 123.91 71.1371 121.102 71.1371ZM46.8658 68.5948C42.6535 68.5948 39.2388 72.0095 39.2388 76.2218V88.9335C39.2388 93.1457 42.6535 96.5605 46.8658 96.5605H121.102C125.314 96.5605 128.729 93.1457 128.729 88.9335V76.2218C128.729 72.0095 125.314 68.5948 121.102 68.5948H46.8658Z" fill="#739BFD"/>
</g>
<path d="M56.7808 82.5776C56.7808 84.4731 55.2442 86.0097 53.3487 86.0097C51.4531 86.0097 49.9165 84.4731 49.9165 82.5776C49.9165 80.6821 51.4531 79.1454 53.3487 79.1454C55.2442 79.1454 56.7808 80.6821 56.7808 82.5776Z" fill="#3875FF"/>
<path d="M77.2466 82.5776C77.2466 84.4731 75.71 86.0097 73.8145 86.0097C71.919 86.0097 70.3823 84.4731 70.3823 82.5776C70.3823 80.6821 71.919 79.1454 73.8145 79.1454C75.71 79.1454 77.2466 80.6821 77.2466 82.5776Z" fill="#3875FF"/>
<path d="M97.7124 82.5776C97.7124 84.4731 96.1758 86.0097 94.2803 86.0097C92.3848 86.0097 90.8481 84.4731 90.8481 82.5776C90.8481 80.6821 92.3848 79.1454 94.2803 79.1454C96.1758 79.1454 97.7124 80.6821 97.7124 82.5776Z" fill="#3875FF"/>
<path d="M118.178 82.5776C118.178 84.4731 116.641 86.0097 114.746 86.0097C112.85 86.0097 111.313 84.4731 111.313 82.5776C111.313 80.6821 112.85 79.1454 114.746 79.1454C116.641 79.1454 118.178 80.6821 118.178 82.5776Z" fill="#3875FF"/>
<defs>
<filter id="filter0_i_3631_5799" x="39.2388" y="68.5948" width="89.4902" height="27.9657" filterUnits="userSpaceOnUse" color-interpolation-filters="sRGB">
<feFlood flood-opacity="0" result="BackgroundImageFix"/>
<feBlend mode="normal" in="SourceGraphic" in2="BackgroundImageFix" result="shape"/>
<feColorMatrix in="SourceAlpha" type="matrix" values="0 0 0 0 0 0 0 0 0 0 0 0 0 0 0 0 0 0 127 0" result="hardAlpha"/>
<feOffset/>
<feGaussianBlur stdDeviation="22"/>
<feComposite in2="hardAlpha" operator="arithmetic" k2="-1" k3="1"/>
<feColorMatrix type="matrix" values="0 0 0 0 0.45098 0 0 0 0 0.607843 0 0 0 0 0.992157 0 0 0 1 0"/>
<feBlend mode="normal" in2="shape" result="effect1_innerShadow_3631_5799"/>
</filter>
<filter id="filter1_i_3631_5799" x="39.2388" y="68.5948" width="89.4902" height="27.9657" filterUnits="userSpaceOnUse" color-interpolation-filters="sRGB">
<feFlood flood-opacity="0" result="BackgroundImageFix"/>
<feBlend mode="normal" in="SourceGraphic" in2="BackgroundImageFix" result="shape"/>
<feColorMatrix in="SourceAlpha" type="matrix" values="0 0 0 0 0 0 0 0 0 0 0 0 0 0 0 0 0 0 127 0" result="hardAlpha"/>
<feOffset/>
<feGaussianBlur stdDeviation="22"/>
<feComposite in2="hardAlpha" operator="arithmetic" k2="-1" k3="1"/>
<feColorMatrix type="matrix" values="0 0 0 0 0.45098 0 0 0 0 0.607843 0 0 0 0 0.992157 0 0 0 1 0"/>
<feBlend mode="normal" in2="shape" result="effect1_innerShadow_3631_5799"/>
</filter>
</defs>
</svg>
