<svg width="24" height="24" viewBox="0 0 24 24" fill="none" xmlns="http://www.w3.org/2000/svg">
<mask id="mask0_4294_3379" style="mask-type:alpha" maskUnits="userSpaceOnUse" x="0" y="0" width="24" height="24">
<rect width="24" height="24" fill="#D9D9D9"/>
</mask>
<g mask="url(#mask0_4294_3379)">
<path d="M16 20C15.1667 20 14.4583 19.7083 13.875 19.125C13.2917 18.5417 13 17.8333 13 17C13 16.1667 13.2917 15.4583 13.875 14.875C14.4583 14.2917 15.1667 14 16 14C16.1833 14 16.3583 14.0123 16.525 14.037C16.6917 14.0623 16.85 14.1167 17 14.2V6H22V8H19V17C19 17.8333 18.7083 18.5417 18.125 19.125C17.5417 19.7083 16.8333 20 16 20ZM3 16V14H11V16H3ZM3 12V10H15V12H3ZM3 8V6H15V8H3Z" fill="#808284"/>
</g>
</svg>
